<?xml version="1.0" encoding="UTF-8" standalone="no"?>
<svg
   xmlns:dc="http://purl.org/dc/elements/1.1/"
   xmlns:cc="http://creativecommons.org/ns#"
   xmlns:rdf="http://www.w3.org/1999/02/22-rdf-syntax-ns#"
   xmlns:svg="http://www.w3.org/2000/svg"
   xmlns="http://www.w3.org/2000/svg"
   viewBox="0 0 178.86667 65.986664"
   height="65.986664"
   width="178.86667"
   xml:space="preserve"
   id="svg2"
   version="1.1"><metadata
     id="metadata8"><rdf:RDF><cc:Work
         rdf:about=""><dc:format>image/svg+xml</dc:format><dc:type
           rdf:resource="http://purl.org/dc/dcmitype/StillImage" /></cc:Work></rdf:RDF></metadata><defs
     id="defs6" /><g
     transform="matrix(1.3333333,0,0,-1.3333333,0,65.986667)"
     id="g10"><g
       transform="scale(0.1)"
       id="g12"><path
         id="path14"
         style="fill:#5a5758;fill-opacity:1;fill-rule:nonzero;stroke:none"
         d="m 507.383,241.836 c -45.801,-1.289 -78.028,-1.934 -78.028,-26.738 v -3.262 c 0,-19.004 16.426,-26.094 39.012,-26.094 18.059,0 28.379,0.957 39.016,3.867 z m 26.758,-72.871 c -18.067,-5.469 -38.692,-8.418 -66.133,-8.418 -34.805,0 -65.449,15.488 -65.449,51.289 v 3.262 c 0,29.961 29.035,45.742 73.859,47.402 10.32,0.293 20.625,0.645 30.965,1.27 v 9.023 c 0,22.598 -15.789,29.668 -40.637,29.668 -20.652,0 -37.742,-5.137 -49.012,-9.981 -2.597,8.067 -5.175,16.133 -7.761,24.18 16.773,6.153 35.183,10.977 58.394,10.977 37.403,0 65.774,-14.844 65.774,-58.047 V 168.965" /><path
         id="path16"
         style="fill:#5a5758;fill-opacity:1;fill-rule:nonzero;stroke:none"
         d="m 558.027,249.258 c 0,55.176 31.621,78.379 73.86,78.379 19.043,0 34.176,-6.446 46.109,-14.199 -2.266,-7.715 -5.144,-15.469 -7.398,-23.223 -9.055,6.152 -22.571,12.246 -38.711,12.246 -28.703,0 -47.082,-14.16 -47.082,-53.203 v -8.36 c 0,-38.066 20.312,-55.156 50.312,-55.156 13.535,0 26.758,2.91 38.367,9.668 2.246,-7.734 5.176,-15.156 7.434,-22.89 -12.898,-7.774 -26.785,-11.973 -45.801,-11.973 -48.379,0 -77.09,31.973 -77.09,80.351 v 8.36" /><path
         id="path18"
         style="fill:#5a5758;fill-opacity:1;fill-rule:nonzero;stroke:none"
         d="m 696.105,249.258 c 0,55.176 31.59,78.379 73.829,78.379 19.031,0 34.207,-6.446 46.14,-14.199 -2.265,-7.715 -5.176,-15.469 -7.422,-23.223 -9.035,6.152 -22.566,12.246 -38.718,12.246 -28.684,0 -47.09,-14.16 -47.09,-53.203 v -8.36 c 0,-38.066 20.34,-55.156 50.34,-55.156 13.535,0 26.757,2.91 38.359,9.668 2.266,-7.734 5.145,-15.156 7.41,-22.89 -12.89,-7.774 -26.746,-11.973 -45.769,-11.973 -48.379,0 -77.079,31.973 -77.079,80.351 v 8.36" /><path
         id="path20"
         style="fill:#5a5758;fill-opacity:1;fill-rule:nonzero;stroke:none"
         d="m 861.582,254.414 h 83.516 v 1.953 c 0,32.227 -16.778,46.094 -41.934,46.094 -25.144,0 -41.582,-13.867 -41.582,-46.094 z M 972.18,233.789 H 861.582 v -1.601 c 0,-31.622 18.699,-46.446 48.992,-46.446 20.324,0 39.035,3.867 50.324,8.692 l 7.723,-23.555 c -16.141,-6.445 -35.801,-10.332 -58.047,-10.332 -46.433,0 -76.414,23.574 -76.414,79.355 v 8.399 c 0,55.801 27.422,79.336 69.004,79.336 41.934,0 69.016,-23.535 69.016,-79.336 v -14.512" /><path
         id="path22"
         style="fill:#5a5758;fill-opacity:1;fill-rule:nonzero;stroke:none"
         d="m 1019.93,240.254 c 0,-41.934 18.08,-54.512 46.45,-54.512 14.5,0 22.9,1.289 31.91,3.867 v 106.758 c -4.82,2.227 -14.53,6.094 -29.67,6.094 -28.68,0 -48.69,-12.246 -48.69,-54.492 z m 104.84,-71.289 c -17.42,-5.84 -41.01,-8.418 -59.34,-8.418 -42.6,0 -72.246,24.883 -72.246,79.707 v 7.715 c 0,55.781 31.256,79.668 73.856,79.668 12.26,0 23.21,-2.266 31.25,-5.508 v 67.109 h 26.48 V 168.965" /><path
         id="path24"
         style="fill:#5a5758;fill-opacity:1;fill-rule:nonzero;stroke:none"
         d="m 1159.61,324.727 h 26.43 V 163.496 h -26.43 z m 13.22,66.132 c 9.69,0 17.07,-7.421 17.07,-17.089 0,-9.356 -7.38,-16.778 -17.07,-16.778 -9.34,0 -17.09,7.422 -17.09,16.778 0,9.668 7.75,17.089 17.09,17.089" /><path
         id="path26"
         style="fill:#5a5758;fill-opacity:1;fill-rule:nonzero;stroke:none"
         d="m 1314.76,241.836 c -45.83,-1.289 -78.05,-1.934 -78.05,-26.738 v -3.262 c 0,-19.004 16.42,-26.094 39.02,-26.094 18.05,0 28.39,0.957 39.03,3.867 z m 26.75,-72.871 c -18.04,-5.469 -38.7,-8.418 -66.13,-8.418 -34.79,0 -65.43,15.488 -65.43,51.289 v 3.262 c 0,29.961 29.01,45.742 73.85,47.402 10.31,0.293 20.59,0.645 30.96,1.27 v 9.023 c 0,22.598 -15.81,29.668 -40.64,29.668 -20.65,0 -37.73,-5.137 -49,-9.981 -2.6,8.067 -5.2,16.133 -7.77,24.18 16.77,6.153 35.17,10.977 58.38,10.977 37.41,0 65.78,-14.844 65.78,-58.047 V 168.965" /><path
         id="path28"
         style="fill:#c4161d;fill-opacity:1;fill-rule:nonzero;stroke:none"
         d="M 182.156,152.07 115.891,116.035 C 45.4492,205.273 -48.2305,400.918 29.0156,447.656 -36.5039,395.547 137.871,192.031 182.156,152.07" /><path
         id="path30"
         style="fill:#b2b1b1;fill-opacity:1;fill-rule:nonzero;stroke:none"
         d="m 34.2578,450.703 c 46.0352,22.949 123.1442,-11.23 190.9372,-54.394 4.571,5.39 6.817,8.359 11.825,13.691 -83.473,53.633 -164.6684,66.152 -202.7622,40.703" /><path
         id="path32"
         style="fill:#b2b1b1;fill-opacity:1;fill-rule:nonzero;stroke:none"
         d="m 339.52,313.945 c -20.829,25.977 -46.883,52.813 -72.079,74.082 -3.488,-5.41 -5.539,-9.101 -8.847,-14.55 31.23,-22.813 56.914,-45.723 77.304,-62.071 l 3.622,2.539" /><path
         id="path34"
         style="fill:#ed1c24;fill-opacity:1;fill-rule:nonzero;stroke:none"
         d="M 347.551,494.863 C 207.473,414.883 126.27,238.184 116.094,116.211 l 66.023,35.762 c 5.735,100.234 60.403,250.215 166.875,340.781 l -1.441,2.109" /><path
         id="path36"
         style="fill:#5a5758;fill-opacity:1;fill-rule:nonzero;stroke:none"
         d="m 419.141,62.4688 h 5.039 V 0.675781 h -5.039 V 62.4688" /><path
         id="path38"
         style="fill:#5a5758;fill-opacity:1;fill-rule:nonzero;stroke:none"
         d="m 433.953,62.4688 h 46.113 v -4.668 H 459.531 V 0.675781 h -5.136 V 57.8008 h -20.442 v 4.668" /><path
         id="path40"
         style="fill:#5a5758;fill-opacity:1;fill-rule:nonzero;stroke:none"
         d="m 509.805,7.62891 c 9.98,-4.86719 27.187,-4.76953 27.187,5.30859 0,14.5508 -27.472,3.9063 -27.472,23.2031 0,14.0625 20.343,15.6836 30.707,8.5547 l -1.332,-4.1015 c -8.934,6.1914 -24.715,5.039 -24.715,-4.2774 0,-15.1953 27.468,-3.7891 27.468,-23.3789 0,-14.35156 -21.675,-15.58594 -33.171,-9.41406 l 1.328,4.10547" /><path
         id="path42"
         style="fill:#5a5758;fill-opacity:1;fill-rule:nonzero;stroke:none"
         d="m 585.852,25.9688 c 0,13.789 -5.801,18.4335 -14.551,18.4335 -8.742,0 -14.446,-4.6445 -14.446,-18.4335 v -3.0469 c 0,-13.78909 5.704,-18.44143 14.446,-18.44143 8.75,0 14.551,4.65234 14.551,18.44143 z m -33.657,0 c 0,16.4414 8.078,22.9101 19.106,22.9101 11.121,0 19.207,-6.4687 19.207,-22.9101 v -3.0469 c 0,-16.44924 -8.086,-22.9140875 -19.207,-22.9140875 -11.028,0 -19.106,6.4648475 -19.106,22.9140875 v 3.0469" /><path
         id="path44"
         style="fill:#5a5758;fill-opacity:1;fill-rule:nonzero;stroke:none"
         d="m 602.754,67.2188 h 4.656 V 13.8945 c 0,-7.32419 2.278,-9.21872 5.61,-9.21872 2.285,0 3.511,0.46875 4.656,1.03906 l 1.328,-4.08203 c -1.707,-0.863279 -3.32,-1.429685 -6.27,-1.429685 -5.605,0 -9.98,3.320315 -9.98,13.691375 v 53.3243" /><path
         id="path46"
         style="fill:#5a5758;fill-opacity:1;fill-rule:nonzero;stroke:none"
         d="M 661.777,2.48828 C 657.98,1.33984 653.32,0.0078125 644.473,0.0078125 c -10.926,0 -18.914,3.9101575 -18.914,19.9609875 v 28.246 h 4.656 V 19.8711 c 0,-13.39844 5.801,-15.39063 14.355,-15.39063 5.989,0 8.938,0.37109 12.547,1.52734 V 48.2148 h 4.66 V 2.48828" /><path
         id="path48"
         style="fill:#5a5758;fill-opacity:1;fill-rule:nonzero;stroke:none"
         d="m 675.742,62.4688 h 4.656 v -14.254 h 19.297 V 43.7383 H 680.398 V 16.3555 c 0,-9.12112 3.997,-11.87503 9.79,-11.87503 4.187,0 8.082,1.23437 10.835,3.04687 l 1.332,-4.10156 c -3.324,-2.08594 -7.414,-3.4179675 -12.167,-3.4179675 -8.176,0 -14.446,4.3749975 -14.446,16.3476875 v 46.1133" /><path
         id="path50"
         style="fill:#5a5758;fill-opacity:1;fill-rule:nonzero;stroke:none"
         d="m 711.477,48.2148 h 4.656 V 0.675781 h -4.656 z m 2.371,19.3907 c 1.906,0 3.332,-1.5196 3.332,-3.418 0,-1.8164 -1.426,-3.2422 -3.332,-3.2422 -1.907,0 -3.328,1.4258 -3.328,3.2422 0,1.8984 1.421,3.418 3.328,3.418" /><path
         id="path52"
         style="fill:#5a5758;fill-opacity:1;fill-rule:nonzero;stroke:none"
         d="m 762.148,25.9688 c 0,13.789 -5.8,18.4335 -14.55,18.4335 -8.743,0 -14.446,-4.6445 -14.446,-18.4335 v -3.0469 c 0,-13.78909 5.703,-18.44143 14.446,-18.44143 8.75,0 14.55,4.65234 14.55,18.44143 z m -33.652,0 c 0,16.4414 8.074,22.9101 19.102,22.9101 11.125,0 19.211,-6.4687 19.211,-22.9101 v -3.0469 c 0,-16.44924 -8.086,-22.9140875 -19.211,-22.9140875 -11.028,0 -19.102,6.4648475 -19.102,22.9140875 v 3.0469" /><path
         id="path54"
         style="fill:#5a5758;fill-opacity:1;fill-rule:nonzero;stroke:none"
         d="m 779.055,46.3945 c 3.699,1.1563 8.738,2.4844 17.293,2.4844 10.84,0 18.925,-3.9101 18.925,-19.9609 V 0.675781 h -4.66 V 29.0117 c 0,13.3985 -5.8,15.3906 -14.453,15.3906 -6.082,0 -8.836,-0.371 -12.449,-1.5195 V 0.675781 h -4.656 V 46.3945" /><path
         id="path56"
         style="fill:#5a5758;fill-opacity:1;fill-rule:nonzero;stroke:none"
         d="m 827.996,7.62891 c 9.984,-4.86719 27.192,-4.76953 27.192,5.30859 0,14.5508 -27.473,3.9063 -27.473,23.2031 0,14.0625 20.344,15.6836 30.703,8.5547 l -1.328,-4.1015 c -8.938,6.1914 -24.719,5.039 -24.719,-4.2774 0,-15.1953 27.473,-3.7891 27.473,-23.3789 0,-14.35156 -21.68,-15.58594 -33.172,-9.41406 l 1.324,4.10547" /></g></g></svg>